<svg width="18" height="16" fill="none" xmlns="http://www.w3.org/2000/svg"><path d="M17.994 14.89L16.798 4.223a.996.996 0 00-.33-.635 1.013 1.013 0 00-.672-.255h-3.113a3.654 3.654 0 00-1.19-2.374A3.716 3.716 0 009 0c-.923 0-1.812.342-2.493.959a3.655 3.655 0 00-1.19 2.374H2.204c-.248 0-.488.09-.673.255a.996.996 0 00-.33.635L.007 14.89a.992.992 0 00.251.777A1.008 1.008 0 001.01 16h15.98a1.018 1.018 0 00.752-.333.998.998 0 00.25-.777zM9 .666a3.045 3.045 0 012.016.765c.555.492.908 1.169.991 1.902H5.993c.083-.733.436-1.41.99-1.902A3.045 3.045 0 019 .666zm8.242 14.556a.333.333 0 01-.25.111H1.008a.34.34 0 01-.32-.232.33.33 0 01-.014-.138L1.87 4.296A.332.332 0 012.204 4h3.097v2.333a.338.338 0 00.673 0V4h6.052v2.333a.338.338 0 00.672 0V4h3.098a.337.337 0 01.334.296l1.195 10.667a.327.327 0 01-.083.26z" fill="#fff"/></svg>