<svg width="24" height="24" fill="none" xmlns="http://www.w3.org/2000/svg"><path d="M19.99 24h-16c-2 0-2.526-.293-3.112-.879C.293 22.535-.01 22 0 20V4C0 2 .293 1.465.878.879 1.464.293 1.99 0 3.99 0h16c.828 0 2.014.012 3 1 .987.988.987 2.172.987 3v16c.013 2-.293 2.535-.878 3.121-.586.586-1.109.879-3.109.879zM7.493 9V6.75c0-.422-.129-.836-.386-1.242-.258-.406-.543-.696-.855-.867-.312-.172-.554-.18-.726-.024l-1.71 1.735c-.467.468-.733 1.097-.795 1.886-.063.79.058 1.649.363 2.578.304.93.792 1.914 1.463 2.954a18.08 18.08 0 002.412 2.964 18.067 18.067 0 002.962 2.414c1.038.672 2.021 1.165 2.95 1.477.929.313 1.787.438 2.576.375.788-.063 1.416-.328 1.884-.797l1.733-1.734c.156-.157.148-.395-.023-.715-.172-.32-.46-.61-.867-.867-.405-.258-.82-.387-1.24-.387h-2.248l-1.522.938c-.703-.188-1.57-.696-2.6-1.524a18.105 18.105 0 01-2.786-2.789c-.827-1.031-1.334-1.898-1.522-2.602L7.493 9zm8.944 3.75l1.522.258c-.125-1.875-.85-3.477-2.177-4.805-1.327-1.328-2.92-2.055-4.777-2.18l.234 1.524a5.838 5.838 0 013.489 1.71 5.848 5.848 0 011.71 3.493zM11.52 9.117l.281 1.688c.609.297 1.07.758 1.382 1.383l1.685.28a4.49 4.49 0 00-1.205-2.144 4.485 4.485 0 00-2.143-1.207zM10.49 3l.258 1.523c1.56.032 3 .442 4.32 1.23a9.02 9.02 0 013.16 3.165 8.628 8.628 0 011.23 4.324l1.522.258c0-1.422-.277-2.781-.832-4.078-.554-1.297-1.299-2.414-2.236-3.352-.936-.937-2.052-1.683-3.348-2.238A10.245 10.245 0 0010.49 3z" fill="#43FFD2"/></svg>