<svg width="25" height="25" fill="none" xmlns="http://www.w3.org/2000/svg"><path d="M12.488 8.326a4.174 4.174 0 00-4.165 4.166 4.174 4.174 0 004.165 4.165 4.174 4.174 0 004.166-4.165 4.174 4.174 0 00-4.166-4.166zm12.494 4.166c0-1.725.016-3.435-.081-5.157-.097-2 .05-4.381-1.413-5.844C22.023.026 19.648.18 17.648.082c-1.725-.097-3.435-.081-5.156-.081-1.725 0-3.435-.016-5.157.081-2 .097-4.384-.053-5.846 1.41C.023 2.956.179 5.334.082 7.334-.015 9.06.001 10.77.001 12.492c0 1.721-.016 3.434.081 5.156.097 2-.056 4.38 1.407 5.843 1.465 1.466 3.846 1.313 5.846 1.41 1.725.097 3.435.081 5.157.081 1.725 0 3.434.016 5.156-.081 2-.097 4.378.053 5.84-1.41 1.466-1.465 1.316-3.843 1.413-5.843.1-1.722.081-3.431.081-5.156zM12.488 18.9a6.4 6.4 0 01-6.409-6.41 6.4 6.4 0 016.41-6.409 6.4 6.4 0 016.409 6.41 6.4 6.4 0 01-6.41 6.409zM19.16 7.317a1.495 1.495 0 01-1.497-1.497c0-.828.67-1.497 1.497-1.497a1.495 1.495 0 011.384 2.07 1.494 1.494 0 01-1.384.924z" fill="#43FFD2"/></svg>