<svg width="34" height="68" fill="none" xmlns="http://www.w3.org/2000/svg"><path d="M10.68 43.9c0 1.16.12 2.02.36 2.58.28.52.76.88 1.44 1.08.72.2 1.84.3 3.36.3h7.68c3.96 0 6.3-2.54 7.02-7.62 0-.12.1-.16.3-.12.24 0 .36.06.36.18-.36 3.16-.54 5.76-.54 7.8 0 .32-.06.56-.18.72-.12.12-.36.18-.72.18H2.16c-.08 0-.12-.12-.12-.36s.04-.36.12-.36c1.56 0 2.7-.1 3.42-.3.76-.2 1.26-.58 1.5-1.14.28-.6.42-1.5.42-2.7V16.36c0-1.2-.14-2.08-.42-2.64-.24-.56-.74-.94-1.5-1.14-.72-.24-1.86-.36-3.42-.36-.08 0-.12-.12-.12-.36s.04-.36.12-.36l2.94.06c1.68.08 3 .12 3.96.12 1.08 0 2.46-.04 4.14-.12l2.82-.06c.08 0 .12.12.12.36s-.04.36-.12.36c-1.56 0-2.72.12-3.48.36-.72.2-1.22.6-1.5 1.2-.24.56-.36 1.44-.36 2.64V43.9z" fill="#8A8686"/><path d="M30.55 28.25c0 .1-.1.15-.3.15-.167 0-.25-.05-.25-.15 0-1.7-.45-3.05-1.35-4.05-.9-1-2.083-1.5-3.55-1.5h-3.45c-1.233 0-2.15.083-2.75.25-.6.167-1.017.467-1.25.9-.233.433-.35 1.1-.35 2v11h5.45c1.7 0 2.9-.25 3.6-.75.7-.533 1.05-1.433 1.05-2.7 0-.067.1-.1.3-.1.2 0 .3.033.3.1l-.05 3.95c0 .967.017 1.683.05 2.15l.05 2.35c0 .067-.1.1-.3.1-.2 0-.3-.033-.3-.1 0-1.5-.367-2.55-1.1-3.15-.7-.6-1.967-.9-3.8-.9H17.3v10.95c0 1.067.15 1.85.45 2.35.3.467.867.8 1.7 1 .867.2 2.233.3 4.1.3.1 0 .15.1.15.3 0 .2-.05.3-.15.3-1.367 0-2.433-.017-3.2-.05L16 52.9l-3.3.05c-.6.033-1.433.05-2.5.05-.067 0-.1-.1-.1-.3 0-.2.033-.3.1-.3 1.3 0 2.25-.083 2.85-.25.633-.167 1.05-.483 1.25-.95.233-.5.35-1.25.35-2.25V25.8c0-1-.117-1.733-.35-2.2-.2-.467-.617-.783-1.25-.95-.6-.2-1.55-.3-2.85-.3-.067 0-.1-.1-.1-.3 0-.2.033-.3.1-.3H30c.3 0 .45.15.45.45l.1 6.05z" fill="#fff"/></svg>