<svg width="257" height="194" fill="none" xmlns="http://www.w3.org/2000/svg"><path d="M22.955 143.176l-.783.165c-1.129.076-1.575-.484-1.147-1.556.575-1.921 1.842-3.661 3.365-4.964 5.656-4.958 11.948-9.233 18.149-13.162 1.153-.735 1.613-1.65 2.23-2.598 3.266-5.434 6.03-10.925 8.38-16.819 2.893-7.972 5.562-16.223 6.567-24.613.63-5.53.788-10.96 1.104-16.424.16-5.43-.184-10.918-.873-16.496-.284-2.884-.41-5.801-1.04-8.776l-.132-.626c.18-.692-.364-1.721.418-1.887.627-.133.735 1.153.867 1.779.738 4.26 1.286 8.396 1.554 12.755.202 4.045.404 8.091.26 12.047-.12 3.296-.117 6.403-.27 9.542-.268 4.146-.85 8.357-1.463 12.412-.785 5.563-2.453 10.822-4.277 16.114-1.824 5.293-3.837 10.461-6.42 15.26-.798 1.641-1.818 3.001-2.649 4.485-.247.38-.65.792-.238 1.196.223.28.627-.133.906-.356 4.398-2.402 8.796-4.805 13.227-7.05 4.745-2.313 9.711-4.345 14.456-6.657 3.401-1.701 6.68-3.212 10.304-4.633 5.939-2.075 11.745-4.775 17.908-6.57 1.845-.554 3.88-.984 5.626-2.008.56-.446 1.722-.364 2.537-.373.313-.067.849.147.916.46-.025.66-.371.57-.807.825-8.074 2.035-15.792 4.977-23.634 8.108-6.342 2.487-12.585 5.443-18.862 8.243-3.435 1.545-6.87 3.089-10.27 4.79l-9.636 5.473c-1.467.801-2.933 1.602-4.209 2.526-1.03.545-1.713 1.18-2.173 2.095-1.942 3.191-4.329 5.823-6.905 8.33-3.384 3.333-6.834 6.352-11.174 8.252-.28.223-.593.289-.873.512l-.94.199zm.394-1.229c.47-.099 1.22-.421 1.812-.71 3.368-1.858 6.201-3.929 8.901-6.626 2.14-2.252 4.248-4.66 6.165-7.192.28-.223.716-.479.46-.915-.379-.247-.782.165-1.062.388-2.586 1.692-5.139 3.54-7.691 5.389-3.08 2.45-6.225 4.588-8.67 7.722-.403.412-.806.825-.83 1.484-.057.503.165.783.915.46zm59.444-61.313c-1.096.232-2.703-.41-3.215-1.282-.479-.717-.563-2.661-.07-3.42.247-.38.684-.635 1.063-.388.536.213.29.593.199.939-.304.882-.698 2.11.406 2.694 1.105.584 1.912-.24 2.752-.91.56-.445.93-1.014 1.333-1.426.404-.413.337-.726-.322-.75-.94.199-1.978-.072-2.333-.978-.355-.906.452-1.73 1.102-2.523 1.613-1.65 3.467-1.388 4.68.482.257.436.512.873.982.773 1.945-.084 3.947-.671 5.981-1.102.627-.132 1.376-.454 2.159-.62.156-.033.593-.289.692.18.067.314-.247.38-.526.603-2.908.942-5.594 2.164-8.387 2.101-.816.01-1.343.611-1.68 1.337-.83 1.484-1.917 2.532-3.194 3.456-.56.446-.996.701-1.622.834zm17.656 1.334c-2.505.53-4.467-1.017-4.181-3.531.228-2.01.647-3.898.908-5.753.18-.692.395-1.228 1.243-1.08.536.213.512.873.299 1.408-.23 2.011-.927 4.121-.81 6.223-.015 1.475.554 1.845 2.119 1.514 1.533-.488 2.743-1.725 3.986-2.806 1.523-1.304 1.267-1.74 2.345-3.603.37-.57.46-.916-.298-1.41-.759-.493-.924-1.276-.464-2.19.494-.76.954-1.674 1.415-2.59.337-.725.897-1.17 1.779-.867 1.005.115 1.484.831 1.37 1.837.099.47.042.972-.205 1.351-.147.849.232 1.096.825.807 1.342-.611 2.718-1.066 4.217-1.71 2.125-.777 4.218-1.71 6.343-2.487.313-.066.749-.322.816-.01.289.594-.371.57-.527.603-4.118 2.18-8.236 4.36-12.52 5.756-.782.166-.996.702-1.366 1.27-1.942 3.192-2.583 4.8-5.918 6.813-.28.223-.75.322-1.376.455zm7.077-9.838c.626-.133 1.661-2.968 1.405-3.405-.222-.28-.379-.247-.659-.024-.65.792-1.267 1.74-1.538 2.779-.057.502.322.75.792.65zm33.944-9.145c-3.549 2.55-7.287 4.976-11.092 7.09-1.499.644-2.809 1.412-4.308 2.056-1.376.455-2.694.407-4.079.045-1.351-.204-1.896-1.234-2.318-2.453a1.22 1.22 0 01.148-.849c.83-1.484 1.818-3.001 3.217-4.115.931-1.014 2.216-1.123 3.074-.16.668.84.554 1.846-.376 2.86-.963.858-2.116 1.593-3.269 2.327-.313.067-.783.166-.717.479.1.47.479.716.825.807 1.039.27 2.134.039 3.041-.317 2.874-1.099 5.493-2.634 8.269-4.202 2.059-1.09 4.241-2.37 6.3-3.46.437-.256.75-.322 1.252-.265l.033.157zm6.272 6.36c-1.286.108-2.448.027-3.306-.936-.891-1.12-.464-2.192.12-3.297.461-.915.888-1.987 1.505-2.935.091-.346.214-.536-.009-.816-.346-.09-.469.1-.593.29-1.466.8-2.932 1.601-4.431 2.245a3.285 3.285 0 01-1.722.365c-1.508-.172-1.986-.888-1.469-2.306 1.036-2.836 2.64-5.301 4.591-7.677.123-.19.403-.412.526-.602.56-.445 1.063-.388 1.788-.051.536.214.512.873.455 1.376-.328 1.54-.846 2.959-1.363 4.377-.091.346-.494.758-.115 1.005.223.28.66.024.939-.199 1.03-.544 2.026-1.246 3.056-1.79.593-.29 1.219-.422 1.665.138.602.526.198.939-.172 1.508-1.391 1.93-2.558 4.139-3.413 6.282-.214.536-.461.915-.205 1.352.446.56 1.072.427 1.541.328 2.126-.777 3.962-2.146 5.608-3.64 1.524-1.303 3.08-2.45 4.191-4.157.37-.57.996-.702 1.432-.957.313-.067.47-.1.503.057.033.156.066.313-.057.502-3.004 3.58-5.975 7.316-10.316 9.215-.313.067-.626.133-.749.323zm-7.951-6.659c.783-.165.774-.981 1.177-1.394 1.3-1.583 1.875-3.504 2.64-5.3.123-.19.213-.537-.133-.627-.189-.123-.313.066-.436.256-1.268 1.74-2.601 3.167-3.332 5.12-.247.38-.304.883-.362 1.385-.09.346.133.626.446.56zm-24.664 113.566c-1.129.075-2.225.307-3.197.349-4.639.491-7.27-1.896-7.291-6.634.054-3.61.99-6.915 2.585-10.196 2.82-5.994 6.21-11.617 10.547-16.624 4.988-5.798 10.768-10.946 16.547-16.094 4.01-3.465 8.399-6.683 12.821-9.745.716-.478 1.243-1.08 1.234-1.896.358-4.492.872-9.016.917-13.441a12.185 12.185 0 00-.226-3.387c-.066-.313-.322-.75.148-.849.469-.1.692.18.758.494.389 1.063.621 2.158.663 3.131-.078 4.268-.346 8.413-.927 12.625.066.313-.304.882.232 1.096.379.246.783-.166 1.096-.232a373.451 373.451 0 0115.614-9.682c.156-.033.28-.223.593-.289.313-.066.502.057.725.337.223.28-.057.503-.18.692-.56.446-.964.858-1.433.958-5.214 2.411-9.726 5.819-14.494 8.79-2.059 1.09-2.544 2.665-2.773 4.676-.595 5.686-1.694 11.315-3.452 16.921-1.363 4.377-2.883 8.787-4.782 12.95-2.023 4.353-4.235 8.583-7.05 12.286-3.465 4.494-7.408 8.272-12.176 11.244-2.059 1.09-4.151 2.023-6.499 2.52zm-.702-.997c1.755-.207 3.288-.695 4.787-1.339 3.558-1.735 6.481-4.152 9.304-7.039 3.26-3.143 5.918-6.813 8.04-10.696 4.705-8.682 8.181-17.758 10.083-27.319.623-3.239 1.123-6.289 1.4-9.618.123-.19.213-.536-.166-.783s-.626.133-.906.356c-4.142 2.838-8.061 5.957-12.104 9.266-5.006 4.166-9.599 8.736-14.16 13.463-2.947 3.076-5.448 6.713-7.949 10.349-1.605 2.466-2.986 5.211-4.368 7.957a25.026 25.026 0 00-2.808 9.916c-.301 3.989 1.605 6.039 5.527 6.026 1.162.082 2.225-.307 3.32-.539zm72.977-97.212c.437-.256.816-.01.916.46.256.437-.214.536-.651.792-8.624 3.297-17.281 6.437-25.873 9.89-5.123 2.066-10.024 4.41-15.114 6.633-7.619 3.41-14.982 7.258-22.122 11.386-8.92 4.994-17.649 10.112-26.057 15.98-1.59.99-2.989 2.104-4.801 2.815-.123.189-.403.412-.626.132-.223-.28.214-.536.337-.725.56-.446 1.243-1.081 1.96-1.56 5.575-3.796 11.183-7.436 17.013-10.796 6.984-4.094 13.968-8.188 21.018-11.97a340.07 340.07 0 0123.54-10.868c8.368-3.733 17.182-6.906 25.65-10.17 1.656-.677 3.155-1.322 4.81-2zm-31.167 58.765c-.901-1.936.144-3.956.373-5.967.595-5.686 1.917-11.036 3.741-16.328.878-2.802 2.137-5.358 3.205-8.037 2.17-5.202 4.53-10.28 6.857-15.516 2.36-5.078 5.033-10.223 7.739-15.211 1.998-3.694 3.997-7.388 6.342-10.991 1.11-1.707 2.065-3.381 3.398-4.808.247-.38.65-.792 1.054-1.204.84-.669 1.622-.834 2.537-.373.759.493.925 1.276.934 2.092.003 3.106-.843 6.065-1.845 9.058-.936 3.305-2.062 6.487-3.534 9.579-1.192 2.868-2.351 5.894-3.889 8.672-1.077 1.864-1.932 4.007-2.943 6.184-1.472 3.091-3.101 6.216-4.54 9.464-3.304 7.569-7.714 14.553-11.934 21.66-1.695 2.812-3.423 5.467-5.464 8.189-.897 1.171-.96 3.964-.035 5.24.635.684 1.294.708 2.044.386 1.375-.455 2.462-1.503 3.392-2.517 2.264-2.442 4.338-5.006 6.568-7.604.124-.19.337-.726.717-.479.379.247-.024.659-.304.882-2.231 2.598-4.082 5.443-6.123 8.164-.93 1.015-1.893 1.873-3.079 2.451-2.529 1.189-4.392.111-5.211-2.986zm34.885-77.05c-.165-.784-.858-.964-1.541-.329-1.927 1.716-2.938 3.893-4.172 5.79a259.681 259.681 0 00-6.836 11.749c-2.056 4.196-4.301 8.27-6.357 12.466a397.882 397.882 0 00-6.487 14.946c-2.137 5.359-4.43 10.75-5.875 16.289-.689 2.926-1.222 5.819-1.754 8.712-.091.346-.304.882.231 1.096.503.057.56-.446.807-.825 2.378-3.447 4.533-7.174 6.689-10.901 3.702-5.689 6.679-11.716 9.812-17.776 1.933-4.007 3.832-8.17 5.921-12.21 3.528-7.288 6.709-14.666 8.819-22.472.542-2.078.894-4.278.743-6.536zm-17.862 73.284c-1.096.232-2.704-.409-3.215-1.282-.479-.716-.564-2.661-.07-3.42.247-.379.683-.635 1.063-.388.536.214.289.593.198.939-.304.882-.698 2.11.407 2.694 1.105.584 1.912-.241 2.751-.909.56-.445.93-1.014 1.334-1.427.403-.412.337-.725-.322-.749-.939.198-1.978-.072-2.333-.979-.356-.906.451-1.731 1.101-2.522 1.614-1.65 3.468-1.388 4.681.481.256.437.512.873.982.774 1.944-.085 3.946-.672 5.981-1.102.626-.133 1.376-.455 2.159-.621.156-.033.593-.289.692.181.066.313-.247.379-.527.602-2.908.942-5.593 2.165-8.386 2.102-.816.009-1.343.611-1.68 1.336-.831 1.485-1.918 2.532-3.194 3.456-.56.446-.996.702-1.622.834zm38.086-12.638c-1.656.678-3.278 1.512-4.934 2.189-.906.355-1.622.834-2.562 1.033-1.565.331-2.462 1.502-3.169 2.797-.732 1.953-1.472 3.091-3.185 4.271-.716.479-1.622.834-2.628.72-1.039-.271-1.921-.575-2.186-1.827-.132-.626-.355-.906-.882-.304-.246.379-.65.792-.93 1.014-1.086 1.048-2.092.934-3.23.193-.379-.247-.635-.683-.578-1.186.205-1.352.22-2.827.738-4.244.213-.536.427-1.072 1.152-.735.726.337.792.65.612 1.343-.461.915-.419 1.887-.566 2.736-.09.346-.214.536.132.626.19.123.313-.066.437-.256 1.243-1.081 2.297-2.285 3.037-3.423.37-.569.807-.825 1.376-.454.692.18.791.65.578 1.186-.428 1.071-.196 2.167.003 3.106.132.626.512.873.915.461 2.149-1.436 3.359-2.673 4.305-5.163.057-.503-.166-.783-.512-.873-.759-.494-1.204-1.054-1.214-1.869-.009-.816.675-1.451 1.524-1.304.849.148 1.697.295 2.209 1.168.356.906 1.015.93 1.764.608 2.439-.843 4.844-1.843 7.159-2.496l.469-.099c.313-.066 1.063-.389 1.195.238.133.626-.716.478-1.029.544zm20.591-5.011c-3.549 2.55-7.288 4.977-11.093 7.09-1.499.644-2.808 1.412-4.307 2.056-1.376.455-2.694.407-4.079.046-1.352-.205-1.897-1.234-2.318-2.453-.066-.314.024-.66.147-.849.831-1.485 1.818-3.002 3.218-4.116.93-1.014 2.216-1.123 3.074-.159.668.839.554 1.845-.377 2.859-.963.858-2.116 1.593-3.269 2.328-.313.066-.782.165-.716.478.099.47.479.717.825.807 1.038.271 2.134.039 3.04-.316 2.875-1.099 5.494-2.635 8.269-4.203 2.059-1.09 4.242-2.369 6.301-3.459.436-.256.749-.322 1.252-.265l.033.156zm6.271 6.36c-1.285.108-2.447.027-3.305-.936-.891-1.12-.464-2.192.12-3.296.461-.916.888-1.987 1.505-2.936.09-.346.214-.535-.009-.815-.346-.091-.47.099-.593.289-1.466.801-2.932 1.601-4.431 2.246a3.288 3.288 0 01-1.722.364c-1.508-.172-1.987-.888-1.469-2.306 1.035-2.836 2.64-5.301 4.59-7.676.124-.19.404-.413.527-.602.56-.446 1.063-.389 1.788-.052.536.214.512.873.455 1.376-.328 1.541-.846 2.959-1.364 4.377-.09.346-.493.759-.114 1.005.223.28.659.025.939-.198 1.03-.545 2.026-1.247 3.056-1.792.593-.289 1.219-.421 1.664.139.602.527.199.939-.171 1.508-1.391 1.93-2.559 4.139-3.414 6.283-.213.536-.46.915-.204 1.351.445.56 1.071.428 1.541.328 2.125-.776 3.961-2.146 5.608-3.639 1.523-1.304 3.079-2.451 4.19-4.158.37-.569.997-.701 1.433-.957.313-.066.47-.1.503.057.033.157.066.313-.057.503-3.005 3.579-5.975 7.315-10.316 9.215-.313.066-.626.132-.75.322zm-7.95-6.658c.782-.166.773-.982 1.177-1.394 1.3-1.584 1.875-3.504 2.639-5.302.124-.189.214-.535-.132-.626-.19-.123-.313.067-.437.256-1.267 1.74-2.6 3.167-3.332 5.121-.247.379-.304.882-.361 1.385-.09.346.133.626.446.56z" fill="#1F3A3A"/></svg>