<svg width="16" height="16" fill="none" xmlns="http://www.w3.org/2000/svg"><path d="M13 14.667c.551 0 1-.449 1-1v-2.334c0-.551-.449-1-1-1a7.26 7.26 0 01-2.28-.364 1.015 1.015 0 00-1.016.242l-.96.96a9.77 9.77 0 01-3.923-3.922l.952-.958a.97.97 0 00.256-1.015A7.248 7.248 0 015.666 3c0-.551-.448-1-1-1H2.333c-.551 0-1 .449-1 1 0 6.433 5.233 11.667 11.667 11.667zm-10.667-12h2.333A.333.333 0 015 3c0 .851.133 1.687.395 2.48a.315.315 0 01-.085.331L4.006 7.122c1.092 2.152 2.704 3.764 4.866 4.865l1.299-1.3a.344.344 0 01.344-.084A7.89 7.89 0 0013 11c.183 0 .333.15.333.333v2.334c0 .183-.15.333-.333.333C6.934 14 2 9.065 2 3a.333.333 0 01.333-.333z" fill="#43FFD2"/></svg>