<svg width="25" height="25" fill="none" xmlns="http://www.w3.org/2000/svg"><path d="M24.572 5.911a12.79 12.79 0 00-.125-1.549 5.21 5.21 0 00-.438-1.317A4.656 4.656 0 0021.962.997 5.194 5.194 0 0020.653.56a12.716 12.716 0 00-1.561-.127 19.916 19.916 0 00-.64-.012L6.551.417c-.133 0-.42.004-.64.012-.52.01-1.036.052-1.55.125a5.21 5.21 0 00-1.317.438A4.657 4.657 0 00.997 3.04 5.2 5.2 0 00.56 4.348a12.742 12.742 0 00-.129 1.56C.424 6.13.42 6.417.42 6.55l-.002 11.9c0 .133.004.42.012.64.01.519.052 1.036.125 1.55.086.456.234.899.438 1.317a4.657 4.657 0 002.047 2.048c.415.203.855.35 1.309.437.517.074 1.038.117 1.56.127.222.008.508.012.641.012l11.9.002c.133 0 .42-.003.64-.012.519-.01 1.036-.051 1.55-.124a5.245 5.245 0 001.317-.439 4.657 4.657 0 002.049-2.047c.203-.415.35-.855.437-1.308.075-.518.118-1.039.128-1.561a21.4 21.4 0 00.012-.64l.002-11.9c0-.132-.004-.419-.012-.64zm-11.81 14.996h-.003a8.611 8.611 0 01-4.117-1.05l-4.567 1.198 1.222-4.462a8.615 8.615 0 117.465 4.314z" fill="#43FFD2"/><path d="M12.766 5.13a7.162 7.162 0 00-6.069 10.967l.17.27-.723 2.642 2.71-.71.26.154a7.151 7.151 0 003.645.998h.004a7.161 7.161 0 00.002-14.322l.001.001zm4.21 10.235a2.216 2.216 0 01-1.452 1.023 2.953 2.953 0 01-1.356-.084c-.416-.13-.826-.282-1.226-.455A9.595 9.595 0 019.265 12.6a4.184 4.184 0 01-.88-2.226 2.413 2.413 0 01.754-1.794.791.791 0 01.574-.27c.143 0 .286 0 .412.008.133.006.31-.051.483.37.182.43.612 1.49.665 1.597a.394.394 0 01.018.377 1.47 1.47 0 01-.215.359c-.109.125-.226.28-.323.377-.108.107-.22.223-.095.438a6.485 6.485 0 001.197 1.491 5.891 5.891 0 001.732 1.069c.215.108.34.089.466-.055s.538-.628.682-.843c.144-.215.286-.179.483-.108.197.072 1.257.592 1.472.701.215.109.359.16.412.25a1.8 1.8 0 01-.126 1.024z" fill="#43FFD2"/></svg>